<?xml version="1.0" ?><svg data-name="Слой 1" id="Слой_1" viewBox="0 0 128 128" xmlns="http://www.w3.org/2000/svg"><title/><path d="M68,104.7V91.82a46,46,0,0,0,30.67-76v0a2,2,0,0,0-.38-.43,45.92,45.92,0,0,0-68.57,0,2,2,0,0,0-.38.43v0A46,46,0,0,0,60,91.82V104.7a12,12,0,0,0-7.3,7.3H0v8H52.7a12,12,0,0,0,22.6,0H128v-8H75.3A12,12,0,0,0,68,104.7ZM62,48V64.69a75.39,75.39,0,0,0-17.51,2.46A70.1,70.1,0,0,1,41.42,48ZM41.42,44a70,70,0,0,1,3.11-19.3A75.42,75.42,0,0,0,62,27.15V44ZM77.59,85.73A40.11,40.11,0,0,0,86,72.08a48.18,48.18,0,0,1,7.84,3.4A42.08,42.08,0,0,1,77.59,85.73Zm19-13.31a51.35,51.35,0,0,0-9.25-4.11A74,74,0,0,0,90.57,48h15.38A41.79,41.79,0,0,1,96.61,72.42ZM105.95,44H90.57a73.84,73.84,0,0,0-3.25-20.46,51.51,51.51,0,0,0,9.21-4.08A41.79,41.79,0,0,1,105.95,44ZM93.78,16.42A48.32,48.32,0,0,1,86,19.78a40,40,0,0,0-8.4-13.51A42.08,42.08,0,0,1,93.78,16.42ZM66,4.17c6.59,1.08,12.37,7.42,16.12,16.75A71.52,71.52,0,0,1,66,23.15Zm0,23A75.41,75.41,0,0,0,83.47,24.7,70,70,0,0,1,86.58,44H66ZM66,48H86.58a70.1,70.1,0,0,1-3.06,19.15A75.39,75.39,0,0,0,66,64.69Zm0,20.69a71.49,71.49,0,0,1,16.18,2.24C78.43,80.34,72.62,86.74,66,87.83ZM62,4.17v19a71.52,71.52,0,0,1-16.12-2.22C49.63,11.6,55.41,5.25,62,4.17ZM50.41,6.27A40,40,0,0,0,42,19.78a48.34,48.34,0,0,1-7.8-3.36A42.08,42.08,0,0,1,50.41,6.27ZM31.47,19.47a51.51,51.51,0,0,0,9.21,4.08A73.83,73.83,0,0,0,37.43,44H22.05A41.8,41.8,0,0,1,31.47,19.47Zm-.08,53A41.79,41.79,0,0,1,22.05,48H37.43a74,74,0,0,0,3.21,20.31A51.37,51.37,0,0,0,31.39,72.42Zm2.73,3.05A48.17,48.17,0,0,1,42,72.08a40.11,40.11,0,0,0,8.45,13.65A42.08,42.08,0,0,1,34.12,75.48Zm11.7-4.55A71.48,71.48,0,0,1,62,68.69V87.83C55.38,86.74,49.57,80.34,45.82,70.93Z"/></svg>